# xmcd
#
# Track frame offsets:
#	150
#	19133
#	39706
#	49705
#	64386
#	75990
#	93138
#	103660
#	118235
#	130602
#	143724
#	170507
#	184063
#	196505
#	217606
#
# Disc length: 3146 seconds
#
# Revision: 3
# Processed by: cddbd v1.5.2PL0 Copyright (c) Steve Scherf et al.
# Submitted via: EZCDAudioConverter 7.0.0.1
#
DISCID=c00c480f
DTITLE=Compact Disc Club - The Blues Story
DYEAR=2000
DGENRE=Blues
TTITLE0=B.B. King With U2 - When Love Comes To Town (Live)
TTITLE1=Screamin' Jay Hawkins - Constipation Blues
TTITLE2=J.J. Cale - Don't Cry Sister
TTITLE3=Albert Collins - Dyin' Flu
TTITLE4=Etta James - I'd Rather Go Blind
TTITLE5=Bobby 'blue' Bland - Ain't No Love In The Heart Of The City
TTITLE6=The Mojos - Everything's Alright
TTITLE7=Muddy Waters - Good Morning Little School Girl
TTITLE8=Buddy Guy - Keep It To Myself (Aka Keep It To Yourself)
TTITLE9=T-Bone Walker - I'm Still In Love With You
TTITLE10=Free - Mr.Big
TTITLE11=John Lee Hooker - One Bourbon One Scotch One Beer
TTITLE12=Buddy Guy - I Suffer With The Blues
TTITLE13=Chris Farlowe - Summertime
TTITLE14=Howlin' Wolf - Going Down Slow
EXTD=
EXTT0=
EXTT1=
EXTT2=
EXTT3=
EXTT4=
EXTT5=
EXTT6=
EXTT7=
EXTT8=
EXTT9=
EXTT10=
EXTT11=
EXTT12=
EXTT13=
EXTT14=
PLAYORDER=
